<svg width="179" height="327" viewBox="0 0 179 327" fill="none" xmlns="http://www.w3.org/2000/svg">
<path d="M-85.5322 63.1167L-84.8785 63.09L-84.6411 62.4803C-77.3667 43.7945 -65.9203 28.7491 -50.2971 17.3188C-33.7115 5.18441 -14.9818 0.18074 5.94301 2.30758C26.9359 4.44134 47.7263 11.8755 67.3195 25.359C86.9587 38.8741 105.154 56.0271 120.657 77.2173C151.884 119.899 170.255 157.331 175.849 189.562C181.377 221.414 174.431 248.19 155.028 270.034L125.546 248.409C131.511 242.354 135.648 235.703 138.236 228.245C140.931 220.479 142.104 212.761 141.587 204.178C141.073 195.632 139.29 187.507 136.933 179.329C134.561 171.099 130.521 162.034 125.674 152.583C120.815 143.11 115.285 134.138 109.922 126.101C104.571 118.083 98.4704 109.038 91.5361 99.5601C80.3589 84.2829 67.8967 71.4985 53.6556 60.5354C39.3814 49.5467 24.4685 42.6653 9.34858 39.0685C-5.88361 35.4449 -18.8066 37.9654 -29.479 45.7736C-36.995 51.2725 -42.8974 58.231 -47.7809 66.5266L-48.4256 67.6217L-47.2096 67.9908C-26.7902 74.1888 -6.97541 84.4498 12.1486 99.3678C31.301 114.308 48.3447 131.29 62.3722 150.463C90.7553 189.257 107.532 223.451 112.815 253.061C118.098 282.668 111.915 303.338 94.5389 316.051C89.2738 319.903 83.6131 322.521 77.2116 324.149C70.8731 325.761 63.2667 325.746 54.0105 324.282C44.8442 322.833 35.4042 318.991 25.0015 313.185C14.6591 307.413 3.30712 298.208 -9.88999 285.091C-23.0754 271.987 -36.7439 256.117 -50.8059 236.897C-66.5633 215.359 -77.9821 192.733 -85.0731 169.017C-92.1693 145.284 -94.9468 122.56 -93.0932 100.592L-92.9819 99.2725L-94.2811 99.526C-101.171 100.87 -107.674 103.501 -113.182 107.531C-117.25 110.508 -120.431 113.357 -122.693 116.083C-124.81 118.634 -126.761 121.982 -128.359 126.383L-160.612 111.662C-156.481 98.8937 -148.542 88.6783 -137.516 80.6117C-122.247 69.4402 -104.879 63.9068 -85.5322 63.1167ZM-56.3444 102.79L-57.5827 102.361L-57.6694 103.668C-58.8361 121.262 -56.0646 140.65 -49.449 160.319C-42.8365 179.979 -33.1171 198.929 -20.6963 215.906C-9.55748 231.13 1.03113 244.192 11.6514 255.171C22.242 266.119 31.246 274.176 38.9817 279.034C46.6655 283.859 53.7374 287.107 59.608 288.646C65.5054 290.192 70.1148 289.715 73.4737 287.258C76.4231 285.1 78.1776 281.811 78.902 277.555C79.6232 273.318 79.336 268.065 78.1711 261.851C75.839 249.409 70.5028 235.034 62.1991 218.736C53.8929 202.434 44.2422 187.123 32.8456 171.546C21.9081 156.597 8.12088 142.712 -7.91953 129.981C-23.984 117.231 -40.3498 108.328 -56.3444 102.79Z" fill="#FFF956" stroke="black" stroke-width="2"/>
</svg>
