<svg width="264" height="333" viewBox="0 0 264 333" fill="none" xmlns="http://www.w3.org/2000/svg">
<path d="M91.7092 286.399L91.4975 285.965L91.0149 285.987C72.4943 286.86 55.5053 282.826 40.0287 273.891C23.592 264.401 12.3988 250.404 6.43464 231.863C0.455002 213.275 -0.961531 192.863 3.18558 171.192C7.34035 149.481 15.1081 127.623 27.2886 106.526C51.8067 64.0591 76.6591 34.4214 101.865 17.5514C126.834 0.839028 152.149 -3.34628 177.909 4.94129L170.462 38.3938C163.089 35.5744 155.897 34.5557 148.597 35.1733C141.059 35.811 134.127 37.7135 127.087 41.3646C120.072 45.003 113.878 49.5551 107.845 54.6174C101.781 59.7054 95.6246 66.5185 89.4351 74.1668C83.2339 81.8297 77.703 89.8721 72.899 97.4247C68.1034 104.964 62.72 113.521 57.2792 122.945C48.5149 138.125 42.3314 153.453 38.3433 169.6C34.3478 185.777 34.0546 200.949 36.6082 215.062C39.1768 229.258 46.063 239.192 56.5626 245.254C63.9679 249.529 72.0096 251.899 80.8086 252.909L81.7304 253.015L81.6212 252.093C79.296 232.468 80.6336 211.828 86.1664 190.024C91.7057 168.195 99.7537 147.379 110.775 128.29C133.061 89.6895 155.767 62.6185 178.871 46.9969C201.974 31.3753 221.813 28.8035 239.073 38.7689C244.3 41.7863 248.626 45.6057 252.386 50.4259C256.117 55.2084 258.929 61.6742 261.123 70.0665C263.3 78.3941 263.547 87.8475 262.491 98.8403C261.439 109.783 257.856 122.863 251.653 138.963C245.456 155.051 237.1 172.586 226.057 191.712C213.678 213.153 198.769 231.334 181.333 246.261C163.886 261.197 145.688 272.101 126.408 278.8L125.495 279.117L126.046 279.912C129.72 285.215 134.332 289.706 139.751 292.834C143.765 295.152 147.337 296.763 150.459 297.647C153.421 298.485 157.016 298.874 161.398 298.546L160.894 331.736C148.465 333.091 136.796 330.208 125.817 323.869C110.686 315.133 99.555 302.495 91.7092 286.399ZM114.79 246.691L114.867 247.656L115.775 247.322C131.05 241.705 146.389 232.088 160.547 219.115C174.699 206.145 187.104 190.818 196.843 173.949C205.584 158.81 212.698 144.953 218.039 131.855C223.37 118.786 226.838 108.16 228.076 99.8155C229.307 91.5152 229.432 84.3343 228.563 78.8158C227.691 73.2779 225.6 69.6215 222.346 67.7424C219.481 66.0887 216.104 65.8385 212.273 66.817C208.455 67.792 204.144 69.9954 199.332 73.3101C189.701 79.945 179.541 89.8466 168.848 102.987C158.153 116.131 148.792 130.039 139.851 145.525C131.276 160.378 124.653 177.241 119.836 195.579C115.013 213.938 113.55 231.105 114.79 246.691Z" fill="#FFF956" stroke="black" stroke-width="1.46796"/>
</svg>
